Coordinates
version=1
nRows=26
nColumns=24
inDegrees=yes

Units are S.I. units (second, meters, Newtons, ...)
Angles are in degrees.

endheader
time	pelvis_tilt	pelvis_list	pelvis_rotation	pelvis_tx	pelvis_ty	pelvis_tz	hip_flexion_r	hip_adduction_r	hip_rotation_r	knee_angle_r	ankle_angle_r	subtalar_angle_r	mtp_angle_r	hip_flexion_l	hip_adduction_l	hip_rotation_l	knee_angle_l	ankle_angle_l	subtalar_angle_l	mtp_angle_l	lumbar_extension	lumbar_bending	lumbar_rotation
      4.87000000	    -20.80349714	     -0.56335821	     11.24709884	     -1.76136528	     -0.02436501	     -0.27745850	     44.13427530	     -3.23950109	      2.05296449	     -4.34794533	     -1.80514533	     -6.71146639	      9.83356285	      0.98011790	      2.83121988	     12.86237482	    -10.75910060	     18.56861167	     24.38931745	    -62.08526341	     11.11053332	     -3.57982943	    -10.55300268
      4.87500000	    -20.85093305	     -0.77908845	     11.39824703	     -1.75275402	     -0.02587577	     -0.27713565	     44.40946169	     -3.13078407	      1.67433082	     -4.83189502	     -1.65660450	     -6.52048255	      9.93428303	      0.95152826	      2.51217535	     13.00597248	    -11.60284459	     18.47369875	     24.79281836	    -61.59642460	     11.25103383	     -3.41874682	    -10.75849508
      4.88000000	    -20.90981365	     -0.98246554	     11.51556178	     -1.74400458	     -0.02739200	     -0.27679842	     44.71102013	     -3.00329143	      1.42390797	     -5.48042028	     -1.69757710	     -6.42006079	     10.15100635	      0.95246061	      2.21205758	     13.11733158	    -12.48786688	     18.29279018	     25.19240731	    -61.05677696	     11.42123209	     -3.26144877	    -10.89892394
      4.88500000	    -20.91660266	     -1.11699382	     11.52266132	     -1.73504116	     -0.02891760	     -0.27639045	     44.95569621	     -2.84378338	      1.35397332	     -6.17709442	     -2.26755629	     -6.70246802	     12.15638007	      0.83997529	      1.97467353	     13.19114352	    -13.29805367	     17.39434320	     25.61502295	    -57.05643135	     11.55335992	     -3.12742306	    -10.88047979
      4.89000000	    -20.95879724	     -1.32818769	     11.59662667	     -1.72597228	     -0.03034857	     -0.27607130	     45.26190915	     -2.65498302	      1.19738170	     -7.13456466	     -2.72099964	     -6.75760244	     12.27011365	      0.86699972	      1.67542112	     13.22963146	    -14.26537726	     17.06809381	     25.93888436	    -56.91997625	     11.75018602	     -2.93413272	    -11.02627467
      4.89500000	    -20.95416391	     -1.45559918	     11.45356232	     -1.71670540	     -0.03183797	     -0.27542378	     45.53752745	     -2.34827909	      1.31817939	     -8.12751903	     -3.83158094	     -7.30802513	     13.95987575	      0.84784717	      1.42227508	     12.77419440	    -15.28413915	     16.41245618	     26.54318663	    -55.29311199	     11.90491089	     -2.77315187	    -10.86247292
      4.90000000	    -21.00944579	     -1.68112932	     11.53672811	     -1.70749061	     -0.03319470	     -0.27506885	     45.88787068	     -2.13629179	      1.06811511	     -9.31626425	     -4.86093033	     -7.54544937	     14.29597573	      1.03819218	      1.10368593	     12.58097679	    -16.47536106	     15.84265644	     27.09021748	    -54.82221178	     12.13282909	     -2.57369251	    -11.03927348
      4.90500000	    -21.01937836	     -1.85642535	     11.39293130	     -1.69801361	     -0.03455659	     -0.27455332	     46.20138859	     -1.79639403	      0.87954866	    -10.43779402	     -6.76708209	     -8.41072798	     17.16318904	      1.07750216	      0.82047606	     12.25023349	    -17.48865342	     14.35007477	     27.60839773	    -50.20797629	     12.33808330	     -2.34462174	    -10.89473097
      4.91000000	    -21.03889237	     -2.07078051	     11.25222107	     -1.68854905	     -0.03583104	     -0.27382871	     46.55820167	     -1.37476438	      0.86497905	    -11.82022495	     -8.28586795	     -9.09508095	     16.74806496	      1.28833745	      0.46001650	     11.63027766	    -18.76560968	     13.48892475	     28.28613618	    -49.71089918	     12.54866424	     -2.10229385	    -10.79827701
      4.91500000	    -21.00789076	     -2.31328897	     11.01984308	     -1.67895111	     -0.03695648	     -0.27314502	     46.86557351	     -0.86377372	      0.81191336	    -13.25862393	     -9.75700815	     -9.63668547	     15.90071814	      1.37202097	      0.06074668	     10.96767905	    -19.70851968	     10.27240727	     29.03455286	    -37.92075663	     12.72569068	     -1.77428551	    -10.57946826
      4.92000000	    -21.12236427	     -2.54697806	     10.78933755	     -1.66943599	     -0.03815700	     -0.27239267	     47.33029604	     -0.37574466	      0.82215996	    -14.69765543	    -11.34171451	    -10.44029294	     15.41493517	      1.80410263	     -0.31548995	     10.18065732	    -21.11700638	      9.02078538	     29.65368175	    -37.55008468	     13.04216135	     -1.48986612	    -10.36955806
      4.92500000	    -21.20508664	     -2.77822896	     10.53359114	     -1.65994241	     -0.03918703	     -0.27150358	     47.82322456	      0.17882841	      0.90774418	    -16.47745433	    -11.70192023	    -10.50127889	     10.92236057	      2.11210120	     -0.73165117	      9.27926725	    -21.91693347	      4.45174097	     30.30915581	    -21.85908599	     13.30816027	     -1.20345381	    -10.16441307
      4.93000000	    -21.05906911	     -3.03617142	     10.13001446	     -1.65027370	     -0.03988983	     -0.27052906	     47.93454614	      0.89429742	      1.07789064	    -17.80343291	    -13.00081304	    -11.60414011	     10.73141117	      2.20478479	     -1.26564883	      8.07367726	    -22.78913214	      0.61783579	     30.79449090	    -11.50521439	     13.34118141	     -0.79459321	     -9.76617650
      4.93500000	    -21.09015331	     -3.27163717	      9.81590244	     -1.64085413	     -0.04065202	     -0.26948937	     48.28327817	      1.54305822	      1.35905196	    -19.45314681	    -12.83594030	    -11.81355596	      6.67875350	      2.65267994	     -1.74949520	      7.02531675	    -23.94065529	     -2.73250824	     31.20694010	     -4.95873920	     13.52266918	     -0.47789769	     -9.52316127
      4.94000000	    -21.11849889	     -3.53557979	      9.46523009	     -1.63140805	     -0.04132657	     -0.26845689	     48.55451958	      2.24244276	      1.62541773	    -20.91775613	    -12.76206995	    -12.30056024	      4.44822987	      3.12271811	     -2.27419095	      5.97939606	    -25.03010755	     -6.45743466	     31.36344578	      2.03327069	     13.70453159	     -0.11875384	     -9.24027399
      4.94500000	    -21.12743385	     -3.75595196	      9.07352757	     -1.62207868	     -0.04189437	     -0.26732700	     48.78512078	      2.95786495	      1.89684473	    -22.39232682	    -12.25620073	    -12.59927665	      2.10734992	      3.62014116	     -2.75624720	      5.05471318	    -26.22189275	     -9.94034616	     31.39608197	      6.54833002	     13.83037419	      0.20494824	     -8.85098078
      4.95000000	    -21.08976020	     -3.99514047	      8.67125275	     -1.61279907	     -0.04232233	     -0.26618653	     48.88290230	      3.72275891	      2.24856214	    -23.74871826	    -11.51893661	    -12.84101729	      0.22361370	      4.13537965	     -3.25710098	      4.23367199	    -27.52313667	    -13.27466550	     31.23425437	      9.24764606	     13.89933903	      0.55951804	     -8.50314741
      4.95500000	    -20.97235739	     -4.23880204	      8.29744822	     -1.60365260	     -0.04257784	     -0.26522534	     48.80726640	      4.45503593	      2.51630276	    -24.90453564	    -10.94434793	    -13.19425729	      0.23427874	      4.66005164	     -3.72594004	      3.62152841	    -29.03838168	    -16.08762270	     30.85142028	      8.82719866	     13.86061137	      0.94520679	     -8.19686942
      4.96000000	    -20.95630183	     -4.42496183	      7.86104307	     -1.59458368	     -0.04282331	     -0.26399948	     48.80549678	      5.22329589	      2.93658773	    -26.12953996	     -9.67488345	    -13.09504070	     -2.02277902	      5.29451234	     -4.11601039	      3.08943540	    -30.46689628	    -19.14425671	     30.23727445	      8.69497839	     13.90848283	      1.24022293	     -7.78408740
      4.96500000	    -20.78345872	     -4.66192484	      7.38611429	     -1.58550789	     -0.04284802	     -0.26284118	     48.51943042	      6.04595018	      3.25351843	    -27.06234268	     -8.83460740	    -13.22966992	     -1.97015436	      5.80392187	     -4.57691735	      2.51636037	    -31.95693144	    -21.95009503	     29.40213153	      7.54652655	     13.78845210	      1.63517649	     -7.31153801
      4.97000000	    -20.66701199	     -4.90400972	      7.04915038	     -1.57673830	     -0.04282533	     -0.26187538	     48.26091107	      6.73222897	      3.37081039	    -27.95767795	     -7.69468259	    -13.07704736	     -2.66725925	      6.58964451	     -4.95953722	      2.28861912	    -33.91392156	    -23.38882681	     28.51069543	      1.06229033	     13.69704567	      1.98744784	     -7.02109437
      4.97500000	    -20.50734984	     -5.11580573	      6.65381847	     -1.56798856	     -0.04266312	     -0.26087215	     47.84771299	      7.42538290	      3.56494725	    -28.63332213	     -6.80912184	    -13.03316534	     -2.20056635	      7.31675689	     -5.29726336	      2.01258296	    -35.77051707	    -24.78611633	     27.22865671	     -4.80369103	     13.55068048	      2.33106146	     -6.63191779
      4.98000000	    -20.36785712	     -5.30185595	      6.27898304	     -1.55937883	     -0.04243002	     -0.25991053	     47.39856405	      8.03787870	      3.64354787	    -29.17873319	     -6.01956264	    -12.93860155	     -1.20873199	      8.13149379	     -5.57469746	      1.77241671	    -37.68818380	    -25.73376086	     25.66272066	    -11.43547422	     13.40710448	      2.63567403	     -6.23012198
      4.98500000	    -20.20903770	     -5.47031414	      5.91533159	     -1.55084473	     -0.04204946	     -0.25900984	     46.83545596	      8.60197688	      3.74435221	    -29.54882243	     -5.31684399	    -12.80255905	      0.22817933	      8.95378867	     -5.79400816	      1.59254168	    -39.59947627	    -26.26720426	     23.83883362	    -18.22727108	     13.23882609	      2.92234895	     -5.83270865
      4.99000000	    -20.08831887	     -5.60279205	      5.56904714	     -1.54244429	     -0.04162137	     -0.25815761	     46.26714356	      9.07104989	      3.74337390	    -29.81428769	     -4.65724221	    -12.55850142	      2.01715255	      9.85355169	     -5.93643406	      1.43581765	    -41.50382712	    -26.52015811	     21.79553694	    -24.38482889	     13.09643300	      3.16169796	     -5.42413853
      4.99500000	    -19.91607800	     -5.71219532	      5.27322036	     -1.53411151	     -0.04097525	     -0.25736017	     45.55778517	      9.46299649	      3.71146177	    -29.91866067	     -4.03175352	    -12.26162682	      3.99926112	     10.71656838	     -6.02295241	      1.37600916	    -43.35500938	    -26.54833036	     19.76314109	    -29.54821240	     12.89343112	      3.36224071	     -5.01944156
